<?xml version="1.0" encoding="utf-8"?>
<!-- Generator: Adobe Illustrator 27.0.0, SVG Export Plug-In . SVG Version: 6.00 Build 0)  -->
<svg version="1.1" id="Layer_1" xmlns="http://www.w3.org/2000/svg" xmlns:xlink="http://www.w3.org/1999/xlink" x="0px" y="0px"
	 viewBox="0 0 1061.8 104.2" style="enable-background:new 0 0 1061.8 104.2;" xml:space="preserve">
<style type="text/css">
	.st0{fill:#FEE440;}
	.st1{fill:#FF3639;}
	.st2{fill:#26265B;}
	.st3{fill:#FFFFFF;}
</style>
<g>
	<path class="st0" d="M1018.4,0v41.1h-20.1V0h-43.9v41.2h-20.5v-41H892v62.4c6.7,0.7,12.2,1.2,18.3,1.7c0.7,7,1.4,13.5,2.2,20.7
		c6.8,0.7,12.7,1.3,19.1,2c0.9,6.6,1.7,12.6,2.6,18.7h20.1c0.9-6.8,1.7-12.7,2.4-18.4H997c1,7.1,1.8,12.9,2.6,18.8h18.7
		c0.8-7.5,1.5-13.4,2.2-19c7.9-1,14.3-1.8,20.6-2.6c0.7-7.5,1.2-13.5,1.9-20.3c6.5-0.7,12.4-1.2,18.7-1.8V0H1018.4z M955.2,60.5
		h-20.9v-6.7h20.9V60.5z M1019.5,60.5h-20.9v-6.7h20.9V60.5z"/>
	<rect x="998.6" y="53.8" class="st1" width="20.9" height="6.7"/>
	<rect x="934.3" y="53.8" class="st2" width="20.9" height="6.7"/>
</g>
<g>
	<path class="st3" d="M55.2,23.7v9.4H10.4v15.4h43.8V58H10.4v23.4H0V23.7H55.2z"/>
	<path class="st3" d="M77,23.7v57.8H66.6V23.7H77z"/>
	<path class="st3" d="M152.3,50.9v9.4c-3.1,16-16.1,22.1-31.8,22.1c-19.9,0-31.1-13.4-31.1-29.9c0-17.5,11.2-30.9,31.1-30.9
		c17.2,0,27.9,7.3,30.3,20.9h-10.4c-1.8-8.7-8.3-11.7-19.9-11.7c-14.8,0-20.8,7.8-20.8,21.6c0,12.8,6,20.6,20.8,20.6
		c10.3,0,18.9-2.1,21.1-12.8h-20.1v-9.4H152.3z"/>
	<path class="st3" d="M174,23.7v28.4c0,13,5.3,21.1,19.6,21.1c14.3,0,19.5-8.1,19.5-21.1V23.7h10.4v28.4v0.2
		c-0.1,16.7-9.7,30.1-29.8,30.1c-20.2,0-29.9-13.5-30-30.1V23.7H174z"/>
	<path class="st3" d="M292.5,41.2c0,6.5-1.8,11.3-5.3,14.3c4.2,5.3,6.4,14,6.4,26.1h-10.5c0-17-3.6-22.7-14.4-22.7h-22.1v22.7H236
		V23.7h40.8C287,23.7,292.5,30,292.5,41.2z M271.8,49.4c6.6,0,10.3-2.9,10.3-8.2s-3.7-8.2-10.3-8.2h-25.2v16.4L271.8,49.4
		L271.8,49.4z"/>
	<path class="st3" d="M361.1,23.7v9.4h-44.9v15.4h43.8V58h-43.8v14h47v9.4h-57.3V23.7H361.1z"/>
	<path class="st3" d="M432.1,58.8h1.1l22.5-35.1h11l-0.1,0.2v57.5h-10.4V40.2l-18,28.1h-11.2l-17.9-28v41.2h-10.4V23.7h10.9
		L432.1,58.8z"/>
	<path class="st3" d="M489.5,23.7v28.4c0,13,5.3,21.1,19.6,21.1c14.4,0,19.5-8.1,19.5-21.1V23.7h10.4v28.4v0.2
		c-0.1,16.7-9.7,30.1-29.8,30.1c-20.2,0-29.9-13.5-30-30.1V23.7H489.5z"/>
	<path class="st3" d="M582.5,72.8c9.5,0.4,18.5-0.4,19.2-6c1.1-6.3-4.3-9.7-16.7-11.3c-15.3-1.8-32.8-2.6-32.8-16.5
		c0-17,25.6-16.5,33.9-16c11,0.8,20.8,5.1,24.9,17.4h-10.4c-1.5-3.7-5-7.6-17.9-8.2c-6.8-0.3-19.4,0.3-20.2,5.6
		c-0.9,5.4,6.2,6.3,18.6,7.8c15.2,1.8,31.1,4.9,31.1,20.3c0,17.7-24.2,16.6-32.4,16.1c-17.6-1.2-24.8-10-28.3-18.2h10.3
		C565.9,68.7,570.6,72.2,582.5,72.8z"/>
	<path class="st3" d="M677.8,23.7v9.4h-44.9v15.4h43.8V58h-43.8v14h47v9.4h-57.3V23.7H677.8z"/>
	<path class="st3" d="M699.6,23.7v28.4c0,13,5.3,21.1,19.6,21.1c14.3,0,19.4-8.1,19.4-21.1V23.7H749v28.4v0.2
		c-0.1,16.7-9.7,30.1-29.9,30.1s-29.9-13.5-30-30.1V23.7H699.6z"/>
	<path class="st3" d="M795.1,58.8h1.1l22.5-35.1h11.1l-0.1,0.2v57.5h-10.4V40.2l-18,28.1h-11.2l-17.9-28v41.2h-10.4V23.7h10.9
		L795.1,58.8z"/>
</g>
</svg>
